<?xml version="1.0" encoding="utf-8"?>
<!-- Generator: Adobe Illustrator 14.0.0, SVG Export Plug-In . SVG Version: 6.00 Build 43363)  -->
<!DOCTYPE svg PUBLIC "-//W3C//DTD SVG 1.1//EN" "http://www.w3.org/Graphics/SVG/1.1/DTD/svg11.dtd">
<svg version="1.1" id="Layer_1" xmlns="http://www.w3.org/2000/svg" xmlns:xlink="http://www.w3.org/1999/xlink" x="0px" y="0px"
	 width="1024px" height="1024px" viewBox="0 0 1024 1024" enable-background="new 0 0 1024 1024" xml:space="preserve">
<path d="M704,512h-64v128h64V512z M576,512h-64v128h64V512z M704,320h-64v128h64V320z M832,512h-64v128h64V512z M576,704h-64v128h64
	V704z M768,0h-64v128h64V0z M256,0h-64v128h64V0z M832,320h-64v128h64V320z M576,320h-64v128h64V320z M320,704h-64v128h64V704z
	 M192,512h-64v128h64V512z M320,512h-64v128h64V512z M832,64v128H640V64H320v128H128V64H0v896h960V64H832z M896,896H64V256h832V896z
	 M192,704h-64v128h64V704z M448,320h-64v128h64V320z M448,704h-64v128h64V704z M320,320h-64v128h64V320z M448,512h-64v128h64V512z
	 M704,704h-64v128h64V704z"/>
</svg>
