<?xml version="1.0" encoding="utf-8"?>
<!-- Generator: Adobe Illustrator 14.0.0, SVG Export Plug-In . SVG Version: 6.00 Build 43363)  -->
<!DOCTYPE svg PUBLIC "-//W3C//DTD SVG 1.1//EN" "http://www.w3.org/Graphics/SVG/1.1/DTD/svg11.dtd">
<svg version="1.1" id="Layer_1" xmlns:sketch="http://www.bohemiancoding.com/sketch/ns"
	 xmlns="http://www.w3.org/2000/svg" xmlns:xlink="http://www.w3.org/1999/xlink" x="0px" y="0px" width="22px" height="22px"
	 viewBox="0 0 22 22" enable-background="new 0 0 22 22" xml:space="preserve">
<title></title>
<g id="miu">
	<g id="common_logout_signout_exit_outline_stroke">
		<g transform="translate(11.000000, 11.000000) rotate(90.000000) translate(-11.000000, -11.000000) ">
			<path id="path-1" d="M0,0v22h15v-6.5h-1V21H1V1h13v5.5h1V0H0z M22,11l-3-5h-1l2.75,4.501H8V11.5h12.75L18,16h1L22,11z"/>
		</g>
		<g>
			<path id="path-1_1_" fill="none" d="M0,22h22V7h-6.5v1H21v13H1V8h5.5V7H0V22z M11,0L6,3v1l4.501-2.75V14H11.5V1.25L16,4V3L11,0z"
				/>
		</g>
	</g>
</g>
</svg>
