<?xml version="1.0" encoding="utf-8"?>
<!-- Generator: Adobe Illustrator 14.0.0, SVG Export Plug-In . SVG Version: 6.00 Build 43363)  -->
<!DOCTYPE svg PUBLIC "-//W3C//DTD SVG 1.1//EN" "http://www.w3.org/Graphics/SVG/1.1/DTD/svg11.dtd">
<svg version="1.1" id="Layer_1" xmlns="http://www.w3.org/2000/svg" xmlns:xlink="http://www.w3.org/1999/xlink" x="0px" y="0px"
	 width="512px" height="512px" viewBox="0 0 512 512" enable-background="new 0 0 512 512" xml:space="preserve">
<path fill="#FFFFFF" d="M507.592,232.111c0,0-9.296-3.496-36.189-5.977c-32.885-3.04-42.805-15.365-53.742-30.709h-0.22
	c-1.362-3.647-2.821-7.248-4.428-10.776l0.127-0.127c-3.122-18.58-4.812-34.316,16.292-59.719
	c17.25-20.766,21.365-29.818,21.365-29.818c-4.048-10.273-13.781-20.004-13.781-20.004s-9.735-9.734-20.004-13.776
	c0,0-9.052,4.104-29.818,21.361c-25.402,21.102-41.139,19.407-59.719,16.292l-0.127,0.126c-3.524-1.605-7.121-3.058-10.775-4.427
	v-0.214c-15.346-10.934-27.67-20.865-30.711-53.749c-2.484-26.881-5.975-36.189-5.975-36.189C269.757,0,255.997,0,255.997,0
	s-13.766,0-23.887,4.405c0,0-3.498,9.309-5.979,36.189c-3.041,32.884-15.372,42.815-30.709,53.749v0.214
	c-3.647,1.369-7.25,2.821-10.776,4.421l-0.122-0.12c-18.579,3.127-34.316,4.815-59.719-16.285
	C104.041,65.322,94.977,61.21,94.977,61.21c-10.273,4.053-19.992,13.771-19.992,13.771S65.25,84.724,61.208,94.99
	c0,0,4.099,9.053,21.362,29.812c21.1,25.402,19.389,41.139,16.284,59.719l0.128,0.127c-1.607,3.528-3.059,7.129-4.429,10.776H94.34
	c-10.927,15.35-20.859,27.669-53.741,30.709c-26.883,2.486-36.202,5.989-36.202,5.989C0.003,242.254,0.003,256,0.003,256
	s0,13.771,4.405,23.887c0,0,9.297,3.504,36.185,5.979c32.883,3.041,42.803,15.38,53.747,30.71h0.214
	c1.37,3.655,2.821,7.251,4.429,10.775l-0.128,0.127c3.128,18.582,4.815,34.316-16.284,59.72
	c-17.252,20.765-21.368,29.829-21.368,29.829c4.059,10.268,13.775,19.992,13.775,19.992s9.742,9.736,20.01,13.771
	c0,0,9.047-4.094,29.813-21.357c25.402-21.1,41.145-19.389,59.718-16.288l0.128-0.128c3.526,1.605,7.129,3.053,10.776,4.428v0.22
	c15.349,10.928,27.668,20.859,30.709,53.743c2.485,26.881,5.983,36.2,5.983,36.2C242.25,512,255.997,512,255.997,512
	s13.771,0,23.889-4.405c0,0,3.505-9.298,5.976-36.188c3.041-32.884,15.38-42.806,30.711-53.743v-0.22
	c3.654-1.375,7.251-2.821,10.775-4.428l0.127,0.128c18.58-3.122,34.315-4.812,59.719,16.288
	c20.768,17.253,29.833,21.369,29.833,21.369c10.267-4.06,19.989-13.782,19.989-13.782s9.733-9.735,13.781-20.004
	c0,0-4.104-9.054-21.365-29.817c-21.104-25.402-19.402-41.138-16.292-59.72l-0.127-0.127c1.605-3.524,3.064-7.121,4.427-10.775
	h0.221c10.928-15.341,20.857-27.669,53.742-30.71c26.881-2.485,36.2-5.979,36.2-5.979c4.396-10.127,4.396-23.887,4.396-23.887
	S511.997,242.229,507.592,232.111z M255.997,375.727c-66.125,0-119.728-53.602-119.728-119.727s53.603-119.727,119.728-119.727
	c66.124,0,119.728,53.602,119.728,119.727S322.121,375.727,255.997,375.727z"/>
</svg>
